<?xml version="1.0" standalone="no"?>
<!DOCTYPE svg PUBLIC "-//W3C//DTD SVG 20010904//EN"
 "http://www.w3.org/TR/2001/REC-SVG-20010904/DTD/svg10.dtd">
<svg version="1.0" xmlns="http://www.w3.org/2000/svg"
 width="500.000000pt" height="360.000000pt" viewBox="0 0 500.000000 360.000000"
 preserveAspectRatio="xMidYMid meet">

<g transform="translate(0.000000,360.000000) scale(0.100000,-0.100000)"
fill="#000000" stroke="none">
<path d="M0 1800 l0 -1800 2500 0 2500 0 0 1800 0 1800 -2500 0 -2500 0 0
-1800z m2200 499 c24 -11 53 -27 64 -37 41 -37 96 -138 136 -252 24 -66 45
-120 49 -120 3 0 38 86 76 190 l70 190 79 0 c62 0 77 -3 68 -12 -9 -9 -12
-102 -12 -358 0 -334 1 -348 20 -365 11 -10 20 -21 20 -24 0 -4 -27 -6 -61 -6
-33 0 -63 -3 -66 -8 -8 -14 92 -104 149 -134 47 -25 63 -28 148 -28 85 0 101
3 148 28 29 15 71 44 92 64 22 19 40 31 40 26 0 -21 -97 -116 -141 -138 -67
-34 -175 -48 -269 -35 -216 30 -346 180 -480 550 -29 80 -70 181 -91 225 l-37
80 -1 -292 c-1 -280 0 -294 19 -313 11 -11 20 -22 20 -24 0 -2 -27 -3 -60 -3
-33 0 -60 4 -60 7 0 4 9 15 20 25 20 18 20 29 18 344 l-3 325 -42 29 c-88 62
-191 42 -302 -59 -37 -33 -50 -41 -41 -25 22 43 103 122 145 143 79 41 200 43
285 7z m1042 -126 c2 -54 2 -100 1 -101 -1 -2 -11 19 -24 47 -38 90 -99 126
-199 119 l-45 -3 -3 -112 -3 -113 54 0 c40 0 61 6 81 21 l26 20 0 -62 0 -62
-25 23 c-20 19 -37 24 -78 25 l-52 0 0 -211 c0 -188 2 -214 18 -231 9 -11 17
-21 17 -24 0 -2 -47 -4 -105 -4 -58 0 -105 1 -105 3 0 1 9 11 20 22 19 19 20
33 20 357 0 332 0 337 -22 360 l-21 23 221 0 221 0 3 -97z"/>
<path d="M2581 2138 c-112 -298 -115 -309 -101 -347 20 -56 103 -221 112 -221
4 0 8 133 8 295 0 162 -2 295 -5 295 -3 0 -9 -10 -14 -22z"/>
</g>
</svg>
